<svg viewBox="0 0 500 500" xmlns="http://www.w3.org/2000/svg" xmlns:xlink="http://www.w3.org/1999/xlink" width="100%" id="blobSvg">
  <defs>
    <pattern id="pattern" x="0" y="0" width="40" height="40" patternUnits="userSpaceOnUse" fill="#d1d8e0">
      <path d="M0 38.59l2.83-2.83 1.41 1.41L1.41 40H0v-1.41zM0 1.4l2.83 2.83 1.41-1.41L1.41 0H0v1.41zM38.59 40l-2.83-2.83 1.41-1.41L40 38.59V40h-1.41zM40 1.41l-2.83 2.83-1.41-1.41L38.59 0H40v1.41zM20 18.6l2.83-2.83 1.41 1.41L21.41 20l2.83 2.83-1.41 1.41L20 21.41l-2.83 2.83-1.41-1.41L18.59 20l-2.83-2.83 1.41-1.41L20 18.59z"></path>
    </pattern>
  </defs>
  <path id="blob" d="M482.5,288Q483,326,463,358Q443,390,418.5,419.5Q394,449,359.5,465Q325,481,287.5,487.5Q250,494,212,489.5Q174,485,144.5,460.5Q115,436,83,415.5Q51,395,41.5,358Q32,321,23,285.5Q14,250,15,212Q16,174,36,141.5Q56,109,84,85Q112,61,145,44Q178,27,214,22Q250,17,288,16.5Q326,16,355,41Q384,66,416,86Q448,106,460.5,142Q473,178,477.5,214Q482,250,482.5,288Z" fill="url(#pattern)"></path>
</svg>