<?xml version="1.0" standalone="no"?>
<!DOCTYPE svg PUBLIC "-//W3C//DTD SVG 20010904//EN"
 "http://www.w3.org/TR/2001/REC-SVG-20010904/DTD/svg10.dtd">
<svg version="1.0" xmlns="http://www.w3.org/2000/svg"
 width="83.000000pt" height="74.000000pt" viewBox="0 0 83.000000 74.000000"
 preserveAspectRatio="xMidYMid meet">

<g transform="translate(0.000000,74.000000) scale(0.100000,-0.100000)"
fill="#000000" stroke="none">
<path d="M0 370 l0 -370 415 0 415 0 0 370 0 370 -415 0 -415 0 0 -370z m354
269 c31 -24 35 -68 8 -92 -9 -8 -37 -17 -62 -19 l-45 -3 -3 -57 c-2 -32 -7
-58 -12 -58 -6 0 -10 53 -10 125 l0 125 49 0 c34 0 56 -6 75 -21z m237 11 c10
-6 19 -17 19 -25 0 -19 -9 -19 -31 1 -24 21 -59 10 -59 -19 0 -14 18 -38 50
-65 38 -33 50 -50 50 -71 0 -59 -79 -86 -123 -43 -15 15 -18 25 -11 32 7 7 16
4 29 -10 20 -23 45 -26 63 -8 22 22 12 47 -38 96 -54 53 -58 66 -34 100 16 24
53 29 85 12z m-288 -430 l47 -55 0 93 c0 75 3 92 15 92 13 0 15 -20 15 -120 0
-66 -3 -120 -7 -120 -5 0 -42 39 -83 87 l-75 87 -3 -87 c-2 -68 -6 -87 -17
-87 -12 0 -15 22 -15 123 l1 122 37 -40 c20 -22 58 -65 85 -95z m242 80 l31
-50 29 50 c17 27 36 50 43 50 17 0 16 -2 -23 -67 -29 -48 -35 -68 -35 -115 0
-45 -3 -58 -15 -58 -12 0 -15 13 -15 60 0 53 -5 69 -35 116 -39 61 -40 64 -22
64 7 0 26 -23 42 -50z"/>
<path d="M250 590 c0 -40 0 -40 38 -40 41 0 56 7 64 30 11 31 -11 50 -57 50
l-45 0 0 -40z"/>
</g>
</svg>
