<?xml version="1.0" standalone="no"?><svg xmlns="http://www.w3.org/2000/svg" viewBox="0 0 1440 320"><path fill="#CCD8DF" fill-opacity="1" d="M0,96L14.1,85.3C28.2,75,56,53,85,90.7C112.9,128,141,224,169,224C197.6,224,226,128,254,128C282.4,128,311,224,339,272C367.1,320,395,320,424,293.3C451.8,267,480,213,508,208C536.5,203,565,245,593,250.7C621.2,256,649,224,678,192C705.9,160,734,128,762,96C790.6,64,819,32,847,64C875.3,96,904,192,932,213.3C960,235,988,181,1016,170.7C1044.7,160,1073,192,1101,202.7C1129.4,213,1158,203,1186,192C1214.1,181,1242,171,1271,165.3C1298.8,160,1327,160,1355,144C1383.5,128,1412,96,1426,80L1440,64L1440,320L1425.9,320C1411.8,320,1384,320,1355,320C1327.1,320,1299,320,1271,320C1242.4,320,1214,320,1186,320C1157.6,320,1129,320,1101,320C1072.9,320,1045,320,1016,320C988.2,320,960,320,932,320C903.5,320,875,320,847,320C818.8,320,791,320,762,320C734.1,320,706,320,678,320C649.4,320,621,320,593,320C564.7,320,536,320,508,320C480,320,452,320,424,320C395.3,320,367,320,339,320C310.6,320,282,320,254,320C225.9,320,198,320,169,320C141.2,320,113,320,85,320C56.5,320,28,320,14,320L0,320Z"></path></svg>